<svg width="97" height="95" viewBox="0 0 97 95" fill="none" xmlns="http://www.w3.org/2000/svg">
<path fill-rule="evenodd" clip-rule="evenodd" d="M30.2422 60.5512L34.9946 34.1681L60.9757 27.9976L16.0963 16.5332L30.2422 60.5512ZM33.9038 62.8174L38.339 37.2793L63.2857 31.414L59.0629 56.7483L33.9038 62.8174ZM36.2916 66.2391C45.4635 64.0356 55.0467 61.748 62.4535 59.9865L66.9588 33.6233C72.217 49.6469 76.5909 62.9899 81.395 77.7964C78.3716 77.0226 75.2853 76.233 72.1746 75.4372C59.7899 72.2688 47.0183 69.0014 36.2916 66.2391Z" fill="#3AB83A"/>
<path fill-rule="evenodd" clip-rule="evenodd" d="M16.1004 16.5287L34.9892 34.1738L60.9756 27.9975L16.1004 16.5287ZM38.3312 37.2873L63.3746 31.3192L59.0539 56.7576L38.3312 37.2873ZM62.4482 59.9924L66.9589 33.6234C73.0082 48.8056 81.3896 77.8022 81.3896 77.8022L62.4482 59.9924Z" fill="#0B8311"/>
</svg>
